<svg id="レイヤー_1" data-name="レイヤー 1" xmlns="http://www.w3.org/2000/svg" viewBox="0 0 198 49"><defs><style>.cls-1{fill:#888;}</style></defs><title>アートボード 1</title><path class="cls-1" d="M15.18,22.51q0,.4.19.4A8.43,8.43,0,0,0,17,22.07a7.44,7.44,0,0,1,2.61-.73,3.15,3.15,0,0,1,1.71.52,4.74,4.74,0,0,1,1.39,1.36,7.22,7.22,0,0,1,1.21,4.22,6.34,6.34,0,0,1-1.72,4.38,5.83,5.83,0,0,1-4.54,1.9,12.27,12.27,0,0,1-3.38-.44l-.77-.21c-.21-.05-.33-.11-.35-.16a.56.56,0,0,1,0-.2V15.22a.77.77,0,0,0-.6-.75,4.06,4.06,0,0,0-.56-.15l-.47-.11a.6.6,0,0,1-.22-.1.29.29,0,0,1,0-.19q0-.15.19-.25l3.31-1.56A.67.67,0,0,1,15,12q.22,0,.22.31Zm2.75.42a5.32,5.32,0,0,0-2.6.83.33.33,0,0,0-.16.31v6.14a2.53,2.53,0,0,0,1,1.84,3.22,3.22,0,0,0,2,.66,3.3,3.3,0,0,0,2.89-1.48,5.81,5.81,0,0,0,1-3.38,5.91,5.91,0,0,0-1-3.42A3.51,3.51,0,0,0,17.93,22.93Z"/><path class="cls-1" d="M28.37,26.54q-.22,0-.22.95a4.94,4.94,0,0,0,1.19,3.38,3.79,3.79,0,0,0,3,1.36,5,5,0,0,0,3.41-1.53.09.09,0,0,1,.06,0h.06q.08,0,.15.12a.44.44,0,0,0,.14.16,7.88,7.88,0,0,1-3.54,2.53,4.77,4.77,0,0,1-1.58.25,3.77,3.77,0,0,1-1.79-.49A5.12,5.12,0,0,1,27.66,32a6.19,6.19,0,0,1-1.38-4.11,7.37,7.37,0,0,1,1.5-4.49,4.85,4.85,0,0,1,4.12-2A3.63,3.63,0,0,1,35,23a5.36,5.36,0,0,1,1.19,3q0,.56-.27.56Zm.14-1.25c0,.16.08.25.23.25h4.9q.34,0,.34-.4a3,3,0,0,0-.84-1.92,2.41,2.41,0,0,0-1.84-1,2.36,2.36,0,0,0-1.77.88,4.13,4.13,0,0,0-1,2Z"/><path class="cls-1" d="M46.7,31.78a1.34,1.34,0,0,0,.73.2,1.11,1.11,0,0,0,.69-.21.88.88,0,0,1,.38-.21q.1,0,.1.28a.58.58,0,0,1-.26.47,6.34,6.34,0,0,1-2.64,1.43q-.83,0-1.35-1.73c0-.09,0-.13-.06-.12q-1.61,1.21-2,1.45a2.38,2.38,0,0,1-2.14.19,2.79,2.79,0,0,1-1.55-1.38,2.43,2.43,0,0,1-.23-1.05,2.12,2.12,0,0,1,.82-1.75,9.11,9.11,0,0,1,3.12-1.25,6.52,6.52,0,0,0,1.39-.53,2.12,2.12,0,0,0,.64-.42.51.51,0,0,0,0-.17V24.5a2.13,2.13,0,0,0-1.14-2.06,1.94,1.94,0,0,0-.9-.19,1.75,1.75,0,0,0-1.06.42,1.4,1.4,0,0,0-.54,1.18l.06.51a2.54,2.54,0,0,1-.94.52,10.14,10.14,0,0,1-1,.39q-.21,0-.21-.5a2.56,2.56,0,0,1,.3-1.11,3.8,3.8,0,0,1,.84-1.12,4.15,4.15,0,0,1,2.91-1.18,3.88,3.88,0,0,1,2.66.9,2.77,2.77,0,0,1,1,2.15v6.84A.61.61,0,0,0,46.7,31.78Zm-6.3-.92a1.45,1.45,0,0,0,.48,1.08,1.54,1.54,0,0,0,1.1.46,3.09,3.09,0,0,0,1.5-.53q.88-.53.88-1.08V28.16c0-.1,0-.14-.06-.14H44.2l-3,1.4a2.78,2.78,0,0,0-.63.57A1.61,1.61,0,0,0,40.39,30.86Z"/><path class="cls-1" d="M58.73,32.24c0-.15-.1-.2-.17-.15s-.35.2-.84.45a9.59,9.59,0,0,1-4.05,1.21,2.63,2.63,0,0,1-2.34-1,1.7,1.7,0,0,1-.26-1V23.83a1,1,0,0,0-.34-.65,1.43,1.43,0,0,0-.84-.36c-.29,0-.44-.11-.44-.27a.26.26,0,0,1,.21-.29l3-.86a1,1,0,0,1,.31-.05q.15,0,.15.22v8.71a1.56,1.56,0,0,0,.81,1.4,3.88,3.88,0,0,0,2.06.49,3.61,3.61,0,0,0,2.25-.77,2.56,2.56,0,0,0,.52-.55v-7a1,1,0,0,0-.34-.65,1.43,1.43,0,0,0-.84-.36q-.44,0-.43-.27a.26.26,0,0,1,.21-.29l3-.86a1,1,0,0,1,.31-.05q.15,0,.15.26v9.22a1.3,1.3,0,0,0,.32.82,1.2,1.2,0,0,0,.84.25l.75-.05c.05,0,.08,0,.08.15s-.06.18-.19.24l-3.45,1.43a.61.61,0,0,1-.27.08q-.11,0-.11-.32Z"/><path class="cls-1" d="M67.6,23.4c-.05,0-.08,0-.08.12v7.17a1.94,1.94,0,0,0,.34,1.22,1.06,1.06,0,0,0,.88.44,2.27,2.27,0,0,0,.93-.18,3.91,3.91,0,0,0,.69-.38l.53-.38a.73.73,0,0,1,.42-.18c.12,0,.18,0,.18.09a.8.8,0,0,1-.06.4q-1.56,2-3,2a2.63,2.63,0,0,1-2.18-.92,3.39,3.39,0,0,1-.73-2.19V23.4h-1q-.36,0-.38-.23t.07-.3a14.47,14.47,0,0,0,1.9-1.58q.13-.14.35-.43t.64-.78q.42-.49.64-.49t.22.18s-.15.58-.44,1.7c0,.16.07.24.21.25H71q.57,0,.57,1.61c0,.05,0,.08-.1.08Z"/><path class="cls-1" d="M85.52,21.7a.17.17,0,0,1,.14.18.44.44,0,0,1,0,.19.22.22,0,0,1-.12.08l-.27.06-.55.1a1.08,1.08,0,0,0-.68.53,8,8,0,0,0-.64,1.26l-6.1,15.13L76.43,41a1.35,1.35,0,0,1-1.36.69.94.94,0,0,1-.73-.3,1,1,0,0,1-.27-.71.78.78,0,0,1,.2-.6,1.62,1.62,0,0,1,.47-.31l.56-.21a1.88,1.88,0,0,0,.66-.44,1.83,1.83,0,0,0,.43-.51q2.18-4.88,2.18-5.1a1,1,0,0,0-.26-.55L74,24a2.57,2.57,0,0,0-1.65-1.69l-.22,0q-.55-.05-.55-.32t.31-.27H77.7c.07,0,.1.07.1.2a.27.27,0,0,1-.18.27,2.77,2.77,0,0,1-.8.07q-1,0-1,.78l.12.31,3.36,7.21q.26.66.52,0l.32-.84q1.77-4.48,2-5.18a4,4,0,0,0,.21-1.05,1.11,1.11,0,0,0-.37-.74,1.33,1.33,0,0,0-1-.39q-.64,0-.64-.38,0-.22.29-.22Z"/><path class="cls-1" d="M111.27,32.14q.1,0,.1.24t-.08.27a5.89,5.89,0,0,1-3,1.14,2.68,2.68,0,0,1-2.18-1.18,12.27,12.27,0,0,1-.86-1.21,10.59,10.59,0,0,0-.7-1q-3.65,3.35-6.48,3.35a4.21,4.21,0,0,1-3.25-1.55,5.15,5.15,0,0,1-1.37-3.5q0-2.73,3-4.4a16.09,16.09,0,0,1,1.93-.92,6.45,6.45,0,0,1-1.83-2.67,4.74,4.74,0,0,1-.13-1.19,2.69,2.69,0,0,1,1.17-2.27,4.34,4.34,0,0,1,2.65-.86,4,4,0,0,1,2.58.86,2.76,2.76,0,0,1,1.1,2.28q0,1.68-2.45,3.17l-.31.19a.16.16,0,0,0,0,.11c0,.06,0,.13.15.22l.34.31.56.51q.37.34.73.64a14.72,14.72,0,0,1,1.48,1.71,13.16,13.16,0,0,0,1.18,1.42.2.2,0,0,0,.19-.1l3-4.49a1.63,1.63,0,0,0,.32-.84.53.53,0,0,0-.22-.49,1.56,1.56,0,0,0-.49-.19l-.49-.12a.27.27,0,0,1-.22-.29q0-.23.13-.23h4.77a.58.58,0,0,1,.05.28c0,.13,0,.21-.06.24a4,4,0,0,1-.86.13,2.18,2.18,0,0,0-1.77.9L106,28.63l1.62,2.79a2.09,2.09,0,0,0,1.78,1.27,2.66,2.66,0,0,0,1.1-.25Q111.07,32.2,111.27,32.14Zm-12.11.05a5,5,0,0,0,2.42-.62A13.86,13.86,0,0,0,103.84,30c.15-.14.22-.25.21-.32s0-.13,0-.14a.14.14,0,0,1,0-.06,18,18,0,0,0-4.31-5.06l-.34-.29A.59.59,0,0,0,99,24a1.78,1.78,0,0,0-.75.31,5,5,0,0,0-1.8,1.83,4.35,4.35,0,0,0-.69,2.17,3.92,3.92,0,0,0,1.05,2.82A3.18,3.18,0,0,0,99.16,32.19Zm3-12.63q0-2.42-2-2.42a1.62,1.62,0,0,0-1.7,1.18,3.67,3.67,0,0,0-.12,1.06,3.07,3.07,0,0,0,.53,1.56,4.29,4.29,0,0,0,1.44,1.43,2,2,0,0,0,1.34-1.05A3.46,3.46,0,0,0,102.14,19.55Z"/><path class="cls-1" d="M128.84,24.07a1.92,1.92,0,0,1-.45-.17,4.44,4.44,0,0,0-1.69-.49,1.82,1.82,0,0,0-1.28.76,2.2,2.2,0,0,0-.67,1.37v5.87a1.31,1.31,0,0,0,1.13,1.3,7.7,7.7,0,0,0,.92.19,2.73,2.73,0,0,1,.55.11.2.2,0,0,1,.12.2.16.16,0,0,1-.13.18h-6.51a.16.16,0,0,1-.13-.18q0-.23.61-.31a1.4,1.4,0,0,0,1.4-1.48V24.54a.76.76,0,0,0-.6-.75,4.06,4.06,0,0,0-.56-.15l-.47-.11a.59.59,0,0,1-.22-.1.29.29,0,0,1,0-.19q0-.15.19-.25l3.31-1.56a.68.68,0,0,1,.19-.08q.22,0,.22.31v2.1c0,.1,0,.16.08.16s.25-.2.53-.61q1.23-1.73,2-1.73a4.41,4.41,0,0,1,1.4.36q.94.36.94.61a2.38,2.38,0,0,1-.3.91Q129.14,24.07,128.84,24.07Z"/><path class="cls-1" d="M132.73,26.54q-.22,0-.22.95a4.94,4.94,0,0,0,1.19,3.38,3.79,3.79,0,0,0,3,1.36,5,5,0,0,0,3.41-1.53.09.09,0,0,1,.06,0h.06q.08,0,.15.12a.44.44,0,0,0,.14.16A7.88,7.88,0,0,1,137,33.49a4.77,4.77,0,0,1-1.58.25,3.77,3.77,0,0,1-1.79-.49A5.12,5.12,0,0,1,132,32a6.19,6.19,0,0,1-1.38-4.11,7.37,7.37,0,0,1,1.5-4.49,4.85,4.85,0,0,1,4.12-2A3.63,3.63,0,0,1,139.34,23a5.36,5.36,0,0,1,1.19,3q0,.56-.27.56Zm.14-1.25c0,.16.08.25.23.25H138q.34,0,.34-.4a3,3,0,0,0-.84-1.92,2.41,2.41,0,0,0-1.84-1,2.36,2.36,0,0,0-1.77.88,4.13,4.13,0,0,0-1,2Z"/><path class="cls-1" d="M151.06,31.78a1.34,1.34,0,0,0,.73.2,1.11,1.11,0,0,0,.69-.21.88.88,0,0,1,.38-.21q.1,0,.1.28a.58.58,0,0,1-.26.47,6.34,6.34,0,0,1-2.64,1.43q-.83,0-1.35-1.73c0-.09,0-.13-.06-.12q-1.61,1.21-2,1.45a2.38,2.38,0,0,1-2.14.19A2.79,2.79,0,0,1,143,32.16a2.43,2.43,0,0,1-.23-1.05,2.12,2.12,0,0,1,.82-1.75,9.11,9.11,0,0,1,3.12-1.25,6.52,6.52,0,0,0,1.39-.53,2.12,2.12,0,0,0,.64-.42.51.51,0,0,0,0-.17V24.5a2.13,2.13,0,0,0-1.14-2.06,1.94,1.94,0,0,0-.9-.19,1.75,1.75,0,0,0-1.06.42,1.4,1.4,0,0,0-.54,1.18l.06.51a2.54,2.54,0,0,1-.94.52,10.14,10.14,0,0,1-1,.39q-.21,0-.21-.5a2.56,2.56,0,0,1,.3-1.11,3.8,3.8,0,0,1,.84-1.12,4.15,4.15,0,0,1,2.91-1.18,3.88,3.88,0,0,1,2.66.9,2.77,2.77,0,0,1,1,2.15v6.84A.61.61,0,0,0,151.06,31.78Zm-6.3-.92a1.45,1.45,0,0,0,.48,1.08,1.54,1.54,0,0,0,1.1.46,3.09,3.09,0,0,0,1.5-.53q.88-.53.88-1.08V28.16c0-.1,0-.14-.06-.14h-.09l-3,1.4a2.78,2.78,0,0,0-.63.57A1.61,1.61,0,0,0,144.76,30.86Z"/><path class="cls-1" d="M159,32.89q.61.08.61.31a.16.16,0,0,1-.13.18h-5.79a.16.16,0,0,1-.13-.18q0-.23.61-.31a1.4,1.4,0,0,0,1.4-1.48V15.22a.77.77,0,0,0-.6-.75,4.06,4.06,0,0,0-.56-.15l-.47-.11a.6.6,0,0,1-.22-.1.29.29,0,0,1,0-.19q0-.15.19-.25l3.31-1.56a.67.67,0,0,1,.19-.08q.22,0,.22.31V31.41A1.4,1.4,0,0,0,159,32.89Z"/><path class="cls-1" d="M161,33.38a.16.16,0,0,1-.13-.18q0-.23.61-.31a1.4,1.4,0,0,0,1.4-1.48V24.54a.76.76,0,0,0-.6-.75,4,4,0,0,0-.56-.15l-.47-.11a.59.59,0,0,1-.22-.1.29.29,0,0,1,0-.19q0-.15.19-.25l3.31-1.56a.68.68,0,0,1,.19-.08q.22,0,.22.31v9.75a1.4,1.4,0,0,0,1.4,1.48q.61.08.61.27t-.13.22Zm2.71-15.69a1.44,1.44,0,0,1-.95-.34,1.15,1.15,0,0,1-.41-.94,1.22,1.22,0,0,1,.39-1,1.34,1.34,0,0,1,.93-.35,1.17,1.17,0,0,1,.91.42,1.32,1.32,0,0,1,.37.9,1.29,1.29,0,0,1-.35.88A1.13,1.13,0,0,1,163.69,17.7Z"/><path class="cls-1" d="M171.61,23.4c-.05,0-.08,0-.08.12v7.17a1.94,1.94,0,0,0,.34,1.22,1.06,1.06,0,0,0,.88.44,2.27,2.27,0,0,0,.93-.18,3.91,3.91,0,0,0,.69-.38l.53-.38a.73.73,0,0,1,.42-.18c.12,0,.18,0,.18.09a.8.8,0,0,1-.06.4q-1.56,2-3,2a2.63,2.63,0,0,1-2.18-.92,3.39,3.39,0,0,1-.73-2.19V23.4h-1q-.36,0-.38-.23t.07-.3a14.47,14.47,0,0,0,1.9-1.58q.13-.14.35-.43t.64-.78q.42-.49.64-.49t.22.18s-.15.58-.44,1.7c0,.16.07.24.21.25h3.31q.57,0,.57,1.61c0,.05,0,.08-.1.08Z"/><path class="cls-1" d="M189.53,21.7a.17.17,0,0,1,.14.18.44.44,0,0,1,0,.19.22.22,0,0,1-.12.08l-.27.06-.55.1a1.08,1.08,0,0,0-.68.53,8,8,0,0,0-.64,1.26l-6.1,15.13L180.44,41a1.35,1.35,0,0,1-1.36.69.94.94,0,0,1-.73-.3,1,1,0,0,1-.27-.71.78.78,0,0,1,.2-.6,1.62,1.62,0,0,1,.47-.31l.56-.21a1.88,1.88,0,0,0,.66-.44,1.83,1.83,0,0,0,.43-.51q2.18-4.88,2.18-5.1a1,1,0,0,0-.26-.55L178,24a2.57,2.57,0,0,0-1.65-1.69l-.22,0q-.55-.05-.55-.32t.31-.27h5.78c.07,0,.1.07.1.2a.27.27,0,0,1-.18.27,2.77,2.77,0,0,1-.8.07q-1,0-1,.78l.12.31,3.36,7.21q.26.66.52,0l.32-.84q1.77-4.48,2-5.18a4,4,0,0,0,.21-1.05,1.11,1.11,0,0,0-.37-.74,1.33,1.33,0,0,0-1-.39q-.64,0-.64-.38,0-.22.29-.22Z"/></svg>