<svg id="レイヤー_1" data-name="レイヤー 1" xmlns="http://www.w3.org/2000/svg" viewBox="0 0 431.96 152.89"><defs><style>.cls-1{fill:#221815;}.cls-2{fill:#813787;}.cls-3{fill:none;}</style></defs><title>アートボード 2</title><path class="cls-1" d="M12.21,28.41a1.11,1.11,0,0,1-.53.16c-.7.1-1.87,0-2-1.17s-.09-15.24-.08-15.27c.08-1.56,1.64-1.56,2.39-1.56H80.29c.47,0,1.27.07,1.64.07,0,0,1.58,0,1.2,1.42a5.36,5.36,0,0,1-1,1.77c-11,14.29-52.69,67.25-64.23,82a2.71,2.71,0,0,0-.15,1.86,1.3,1.3,0,0,0,1.3.82l51.17,0a6.11,6.11,0,0,0,5.32-3.17,22.18,22.18,0,0,0,2.56-6.48c0-.75,1.1-1.22.59-1.05,1.43-.49,2.12.35,2.19,1.09.15,1.39.05,4.67.05,7.59v7.34c0,.45.11,1-.48,1h-78A7.21,7.21,0,0,1,.8,104.7a1.36,1.36,0,0,1-.8-1.1C10.52,88.11,53.33,32.9,65.17,17.71c1-1.49-.59-1.34-.75-1.34l-43.84,0c-2,0-4.24,0-4.7.11-1.45.46-3.11,8.5-3.4,11.21A1,1,0,0,1,12.21,28.41Z"/><path class="cls-1" d="M146.28,102.4c-3.53-1.09-9.21-.89-9.8-5.66a90.46,90.46,0,0,1-.4-9.43c-.1-12.11,0-20.94,0-34,0-2-1.68-4.87-2.27-6.06-3-4.17-9.61-5.46-11.82-5.66-12.75-1.18-20.23,1.7-27.58,7.55-.66.54-.6,1.65-.4,5.86,0,.75.67.48,1.26.48s.52-.48,1-1.08c5.87-7.22,16.09-8.34,23.83-4.76,5.36,2.38,7.86,9.44,7.31,16.69-12.5,3-28.75,4.17-36.5,14.89-4.77,6.55-4.77,14.89,2.38,19.66a19.12,19.12,0,0,0,8.83,3.82c8.93,2.38,16.79-2.62,22.74-8.59.85-.84.9.4.92,1,.06,2.82-.31,7.34,1,7.34h19.41c.19-.23.64-.13.57-1.13C146.84,102.7,146.57,102.49,146.28,102.4Zm-26.05-7c-5.09,2.37-10,3.26-15.49,1.19C100,94.8,98.19,88.85,100,84.08c1.79-3.57,4.63-6.69,8.14-8,5.67-2.18,13.4-4.55,19.45-5.25C127.52,79.43,129,91.33,120.23,95.4Z"/><path class="cls-1" d="M163,47.27A46.8,46.8,0,0,0,171,45.15c1.93-.82,2,.45,1.19,1.71,1.06-1.65-2.06,2.45-2.61,4.16a11.4,11.4,0,0,0-.52,2.61c-.18.79.84,1.06,1.27.67,8.45-7.62,22.44-13.13,32.57-7.77a18.7,18.7,0,0,1,4.73,3.32A11.72,11.72,0,0,1,211,56.8c1.79,14.7-.62,36.53,1.62,40.62,2.75,5.05,9.77,3.94,11.12,5.23.57.55.6,2.27-.59,2.26-5.55,0-17.38.11-20-.12-1,.15-1.14-.24-1.12-1.49.08-2.52,2.65-28.78-.92-44.26-1.2-4.17-4.77-6.55-8.34-8.34a15.77,15.77,0,0,0-10.48-.2c-4.17,1.78-13.45,7.94-13.46,13,0,7.94-.2,18.81.16,28.37.14,3.73.55,5.27,3.53,8.24,2.38,1.78,3.22,2.31,8,2.5a1.12,1.12,0,0,1-.47,2.18c-10,0-27.63,0-28.53,0s-.94-.3-.93-1.07a1,1,0,0,1,.63-1c4.62-1.09,9.31.36,9.31-3.85,0-17,0-39.54,0-44,0-4.17-7.46-4.36-8-4.36a.86.86,0,0,1-.53-1.55C153.54,48.51,159.75,48,163,47.27Z"/><path class="cls-1" d="M294.56,6.07a8.27,8.27,0,0,1-3.29.79C296.63.31,305.86.11,312.12,2.68c2.31,1,9.14,5.77,13.71,9.54,2.68,2.21,6,3.6,9.52,2.38a14.9,14.9,0,0,0,7.15-4.77c2-2.38,2.38-3.77,4.17-6.55.6,8.94-6,17.14-14.3,19.06-3.42.79-7.14,1.19-10.71,0C313.91,20,308.55,14,303.19,8.05,300.81,6.26,297.53,4.87,294.56,6.07Z"/><path class="cls-1" d="M295.27,102.24c-4.17-.59-8.88-.73-8.93-5.36,0-2.12.05-92.48.05-94,0-1.19,0-1.15,0-2.3,0-.56-.35-.76-1.6-.49-5.88,1.49-16.27,1.3-18,1.71-1,.26-1.3,1.57,0,1.83,4.4-.15,8.63,1.45,9.85,4.19,1.59,3.57,1.09,22.54,1.09,36.73-7.15-1.19-16.43-3.27-23.5-.12-10.72,4.76-20.85,11.32-26.8,22-4.18,7.74-4.18,16.08-1.2,23.82a22.05,22.05,0,0,0,4.76,7.75,24.84,24.84,0,0,0,7.74,5.36c1.75.71,4.16,1.25,6,1.79,9.58,2.84,19.93,0,28-7.66.43-.41.95-1.07,1.23-1.27,3.48-.73-.66,8.34,1.8,8.34,9.42,0,12.3.09,19.65,0C296.11,104.61,295.86,102.24,295.27,102.24Zm-29-5.54c-9.52,4.23-18.46,2.39-23.83-4.77-6-8.33-7.15-18.46-3-27.39,3.28-7,8.94-11.92,16.09-13.11S273,50,278,56.31C277.77,88.18,280.16,90.56,266.26,96.7Z"/><path class="cls-1" d="M355,61.55A29.58,29.58,0,0,0,351.12,52c-3.87-5.51-12-9.83-20.35-9.83-10.13,0-19.48,4.12-25.29,13a41.17,41.17,0,0,0-5.09,9.68c-1.19,3.57-1.2,6.4-1.24,10a34.94,34.94,0,0,0,7.45,21.52c8.34,8.94,22.3,10.65,34.1,7.81,3.73-.89,9-2,10.87-6.25a2.55,2.55,0,0,0,.35-1.49c0-.7,0-1,0-1.84,0-.29,0-1.09-.79-.35-6.7,6.27-15.07,6-22.81,4.2a21.69,21.69,0,0,1-11-5.29c-3.87-3.72-5.14-5.36-6.41-9.23-1.86-5.66-1.54-6.75-1.64-8.42s.5-2.38,1.34-2.45c12.11-1.09,21-1.54,29.79-2.28,0,0,7.41-3.75,13.85-6.51C355.42,63.73,355.55,64.29,355,61.55Zm-13.3,4.27H310.11c-1.19,0-.59-1.19-.59-1.78,1.78-6,4.16-11.92,9.52-14.89a18.33,18.33,0,0,1,11.32-1.79,15.62,15.62,0,0,1,8.94,6.55C341.68,57.28,343.47,61.65,341.68,65.82Z"/><path class="cls-1" d="M370.9,47.09A47.16,47.16,0,0,0,378.84,45c1.93-.82,2,.45,1.19,1.71,1.07-1.64-2.05,2.44-2.61,4.17a11.5,11.5,0,0,0-.52,2.61c-.18.78.84,1.06,1.26.67,8.47-7.61,22.45-13.13,32.59-7.77a19.08,19.08,0,0,1,4.73,3.31,11.74,11.74,0,0,1,3.37,6.95c1.8,14.7-.62,36.53,1.61,40.62,2.76,5.05,9.78,3.93,11.13,5.23.57.55.61,2.26-.59,2.26-5.55,0-17.39.12-20-.11-1,.15-1.14-.25-1.11-1.49.08-2.53,2.63-28.78-.94-44.27-1.19-4.17-4.77-6.55-8.34-8.34a15.8,15.8,0,0,0-10.47-.2c-4.18,1.79-13.44,7.95-13.46,13,0,7.94-.2,18.81.14,28.37.14,3.73.57,5.27,3.54,8.24,2.38,1.79,3.21,2.31,8,2.51a1.12,1.12,0,0,1-.47,2.19c-10,0-27.62,0-28.51-.06s-1-.3-.94-1.06a1,1,0,0,1,.64-1c4.61-1.1,9.31.37,9.31-3.84,0-17.06,0-39.55,0-44,0-4.17-7.46-4.37-8-4.37a.85.85,0,0,1-.52-1.54C361.41,48.33,367.61,47.83,370.9,47.09Z"/><path class="cls-2" d="M18.29,140.79,22.4,129.5h.07l3.78,11.29Zm9.21,3.09L30,151.32h3.79l-9.29-25.64H20.61L11,151.32h3.57l2.69-7.45Z"/><path class="cls-2" d="M114,128.61h7c2.86,0,5.07,1,5.07,4.27,0,3.45-2.11,4.59-5.21,4.59H114Zm0,11.84h8.07c5.57,0,7.61-4,7.61-7.61,0-4.12-2.86-7.2-7.61-7.2H110.56v25.64H114Z"/><path class="cls-2" d="M221.08,137.84h-5V129.3a4.93,4.93,0,0,1,4.33,3.46A20.75,20.75,0,0,1,221.08,137.84Zm8.79,1.75v-1.75H226a12.77,12.77,0,0,0-2.58-6.18,11.45,11.45,0,0,0-7.32-3.93v-3.22H214v3.22a11.51,11.51,0,0,0-7.33,3.93,12.55,12.55,0,0,0-2.57,6.18H200.2v1.75h3.86a12.59,12.59,0,0,0,2.57,6.19,11.73,11.73,0,0,0,7.33,3.94v3.17h2.15v-3.17a11.67,11.67,0,0,0,7.32-3.94,12.81,12.81,0,0,0,2.58-6.19ZM214,137.84h-5a20.71,20.71,0,0,1,.64-5.08A4.88,4.88,0,0,1,214,129.3Zm7.12,1.75a20.86,20.86,0,0,1-.64,5.08,5,5,0,0,1-4.33,3.43v-8.51ZM214,148.1a4.9,4.9,0,0,1-4.33-3.43,20.81,20.81,0,0,1-.64-5.08h5Z"/><path class="cls-2" d="M324.38,151.83V136.67c0-.75.07-4,.07-6.39h-.07l-7.22,21.55h-3.43l-7.23-21.52h-.07c0,2.36.07,5.61.07,6.36v15.16h-3.35V126.17h5l7.33,21.67h.07l7.3-21.67h4.92v25.65Z"/><path class="cls-2" d="M403.77,128.76h8.64c1.71,0,4.61.33,4.61,4.27,0,3.77-2.69,4.41-5.22,4.41h-8Zm0,11.66h8.4c4.13,0,4.55,2.47,4.55,4.59a31.12,31.12,0,0,0,.61,6.43h4.25v-.55c-1.07-.61-1.25-1.14-1.29-2.58l-.21-4.66c-.14-3.59-1.6-4.23-3.07-4.84a6.28,6.28,0,0,0,3.58-6.12c0-5.42-4.21-6.88-8.43-6.88H400.3v25.64h3.46Z"/><rect id="_スライス_" data-name="&lt;スライス&gt;" class="cls-3" x="-18.52" y="-26.56" width="469" height="206"/></svg>